<svg viewBox="0 0 220 31" xmlns="http://www.w3.org/2000/svg"><g fill="#fff" fill-rule="evenodd"><path d="m28.9821261 6.6236v10.879h-5.4534234v-9.343c0-2.048-1.1416216-3.296-2.9491892-3.296-2.0612612.064-3.3297297 1.76-3.3297297 4.096v8.543h-5.4861261v-9.343c0-2.048-1.10991-3.296-2.91648653-3.296-2.09297297.064-3.39315315 1.76-3.39315315 4.096v8.543h-5.45441442v-17.246h5.45441442v2.847c1.17333333-2.047 3.13945946-3.071 5.64468468-3.104 2.7896396 0 4.8509009 1.473 5.7071171 3.904 1.1099099-2.559 3.2028829-3.871 6.0242343-3.904 3.7419819 0 6.152072 2.592 6.152072 6.624"/><path d="m42.6193514 11.6475v-1.536h-3.4565766c-1.649009 0-2.4735135.576-2.4735135 1.856 0 1.248.8879279 2.048 2.4100901 2.048 1.7124324 0 3.1711711-.96 3.52-2.368m5.39-5.408v11.263h-5.3582883v-1.983c-1.1099099 1.472-2.9174775 2.239-5.2324325 2.239-3.6458558 0-5.8656756-2.239-5.8656756-5.407 0-3.264 2.3139639-5.184 6.5633333-5.216h4.5030631v-.256c0-1.696-1.10991-2.72-3.3297298-2.72-1.427027 0-3.297027.512-5.1055856 1.44l-1.5538738-3.647c2.6637837-1.248 5.0738738-1.952 7.9279279-1.952 4.6933333 0 7.4205405 2.335 7.4512613 6.239"/><path d="m69.3514324 6.6236v10.879h-5.4544144v-9.343c0-2.016-1.1723423-3.264-3.0116216-3.264-1.9978378 0-3.2663063 1.44-3.4882883 3.488v9.119h-5.4861261v-17.246h5.4861261v2.815c1.2050451-2.015 3.1711712-3.039 5.7071171-3.072 3.7736937 0 6.2472072 2.592 6.2472072 6.624"/><path d="m90.6931171 6.6236v10.879h-5.4544144v-9.343c0-2.016-1.1723423-3.264-3.0116216-3.264-1.9978379 0-3.2663063 1.44-3.4882883 3.488v9.119h-5.4861261v-17.246h5.4861261v2.815c1.205045-2.015 3.1711712-3.039 5.7071171-3.072 3.7736937 0 6.2472072 2.592 6.2472072 6.624"/><path d="m109.656423 3.9361-3.932252 2.4c-.792793-1.12-1.966126-1.792-3.456576-1.792-2.123694 0-3.5824328 1.76-3.5824328 4.351 0 2.656 1.4587388 4.384 3.5824328 4.384 1.553873 0 2.758919-.64 3.488288-1.952l3.995676 2.368c-1.395316 2.528-4.154235 4-7.76937 4-5.263153 0-8.8148647-3.52-8.8148647-8.767 0-5.312 3.5834234-8.864 8.8792797-8.864 3.392162 0 6.119369 1.408 7.609819 3.872"/><path d="m155.025775 16.1724c1.173333-2.016 3.106757-3.136 5.549549-3.168v4.992c-3.173153-.288-5.265135 1.216-5.549549 3.648v8.863h-5.486126v-17.247h5.486126z"/><path d="m172.339081 24.6519v-1.536h-3.455586c-1.65 0-2.474504.576-2.474504 1.856 0 1.248.887928 2.048 2.411081 2.048 1.711442 0 3.17018-.96 3.519009-2.368m5.39-5.408v11.263h-5.359279v-1.983c-1.108919 1.472-2.916487 2.239-5.231442 2.239-3.646846 0-5.866666-2.239-5.866666-5.407 0-3.264 2.314955-5.184 6.565315-5.216h4.502072v-.256c0-1.696-1.108919-2.72-3.327748-2.72-1.428018 0-3.299009.512-5.107567 1.44l-1.553874-3.647c2.664775-1.248 5.074865-1.952 7.927928-1.952 4.693333 0 7.42054 2.335 7.451261 6.239"/><path d="m193.362757 21.9321c0-2.656-1.521171-4.48-3.805406-4.48-2.282252 0-3.803423 1.824-3.836126 4.48.032703 2.656 1.553874 4.512 3.836126 4.512 2.284235 0 3.805406-1.856 3.805406-4.512zm5.487117 8.575h-5.487117v-2.272c-1.204054 1.6-2.948198 2.496-5.137298 2.496-4.819189 0-7.989369-3.584-7.989369-8.927 0-5.28 3.13946-8.768 7.863514-8.768 2.251531 0 4.059099.896 5.263153 2.496v-8.767h5.487117z"/><path d="m214.229658 20.396c0-2.112-1.331892-3.488-3.298018-3.488-1.902703 0-3.203874 1.408-3.551712 3.488zm5.264144 2.976h-12.018739c.54009 2.048 1.998829 3.2 4.027387 3.2 1.490451 0 2.950181-.608 4.08982-1.76l2.885766 2.848c-1.744144 1.92-4.311802 3.039-7.451261 3.039-5.58027 0-9.068559-3.519-9.068559-8.767 0-5.344 3.614144-8.864 8.909009-8.864 6.026216 0 9.006126 4 8.626577 10.304z"/><path d="m139.306775 24.3755-6.11937-3.565v1.763h-13.531982v3.616h13.531982v1.751z"/><path d="m5.82256757 22.5405-1.13468469 3.5h-.86216216l-.76306306-2.37-.78783784 2.37h-.85720721l-1.13963964-3.5h.83243244l.78288288 2.46.81756757-2.46h.74324324l.79279279 2.48.80765766-2.48z"/><path d="m11.2827297 25.3906v.65h-2.68558556v-3.5h2.62117116v.65h-1.82342341v.76h1.61036041v.63h-1.61036041v.81z"/><path d="m16.4631351 25.3257c.1070271-.07.1615316-.178.1615316-.325 0-.29-.2130631-.435-.6391892-.435h-.9364865v.865h.9364865c.2110811 0 .3706306-.035.4776576-.105zm-1.4141441-2.175v.825h.7967567c.1991892 0 .3488289-.035.4518919-.105.1020721-.07.1526127-.173.1526127-.31s-.0505406-.239-.1526127-.308c-.103063-.068-.2527027-.102-.4518919-.102zm2.2148649 1.387c.1119819.149.1684684.331.1684684.548 0 .306-.1189189.542-.3547748.707-.2358558.165-.5807207.248-1.0326126.248h-1.7936937v-3.5h1.6945946c.4221622 0 .7462163.081.9731532.245.2259459.163.3399099.385.3399099.665 0 .17-.0406306.322-.1218919.455s-.1942342.238-.3399099.315c.1991892.063.3537838.169.4667568.317z"/><path d="m26.3134865 25.3257c.107027-.07.1615315-.178.1615315-.325 0-.29-.213063-.435-.6391892-.435h-.9364865v.865h.9364865c.2110811 0 .3706307-.035.4776577-.105zm-1.4141442-2.175v.825h.7967568c.1991892 0 .3488288-.035.4518919-.105.1020721-.07.1526126-.173.1526126-.31s-.0505405-.239-.1526126-.308c-.1030631-.068-.2527027-.102-.4518919-.102zm2.2148649 1.387c.111982.149.1684685.331.1684685.548 0 .306-.1189189.542-.3547748.707s-.5807207.248-1.0326126.248h-1.7936937v-3.5h1.6945946c.4221622 0 .7462162.081.9731531.245.225946.163.33991.385.33991.665 0 .17-.0406307.322-.1218919.455-.0812613.133-.1942343.238-.3399099.315.1991891.063.3537837.169.4667567.317z"/><path d="m32.2517027 24.6753-.55-1.34-.55 1.34zm.2527027.615h-1.6103604l-.3072072.75h-.8225225l1.545946-3.5h.7927928l1.5509009 3.5h-.8423424z"/><path d="m36.6893604 25.9878c-.2566667-.075-.4618018-.172-.6173874-.292l.2725225-.61c.1486486.11.325045.198.5301802.265.2051351.067.4102702.1.6144144.1.2279279 0 .3973874-.034.5054054-.103.109009-.068.1635135-.159.1635135-.272 0-.084-.0317117-.153-.0961261-.208s-.1476577-.099-.2477478-.132c-.101081-.034-.2368468-.07-.4092792-.11-.2636036-.064-.4806307-.127-.6490991-.19-.1684685-.064-.3131532-.165-.4330631-.305-.1209009-.14-.1813514-.327-.1813514-.56 0-.204.0545045-.388.1635136-.553.109009-.165.2735135-.296.4935135-.392.22-.097.4885585-.145.8046847-.145.2219819 0 .438018.027.6490991.08.212072.053.3973873.13.5549549.23l-.2477477.615c-.3200901-.184-.6401802-.275-.9612613-.275-.224955 0-.3904505.037-.4974775.11s-.1615315.17-.1615315.29.0624324.209.1863063.267c.1238739.059.3121622.116.5668468.173.2645946.063.4806307.126.6490991.19.1684685.063.3131532.163.4340541.3.1209009.136.1803604.321.1803604.555 0 .2-.0554955.382-.1654955.547-.110991.165-.2764865.296-.4984685.393-.220991.096-.4905405.145-.8076577.145-.2745045 0-.5390991-.038-.7947747-.113"/><path d="m44.5205676 25.3906v.65h-2.6855856v-3.5h2.6211712v.65h-1.8234235v.76h1.6103604v.63h-1.6103604v.81z"/><path d="m49.024027 25.3755c.3468469 0 .6233334-.098.8304505-.292.2061261-.195.3091892-.459.3091892-.793 0-.333-.1030631-.598-.3091892-.792-.2071171-.195-.4836036-.293-.8304505-.293h-.7333333v2.17zm-1.536036-2.835h1.5756757c.3765765 0 .7095495.072.9989189.217.2883784.145.5133333.35.6738739.613.1595495.263.2398198.57.2398198.92s-.0802703.657-.2398198.92c-.1605406.264-.3854955.468-.6738739.613-.2893694.145-.6223424.217-.9989189.217h-1.5756757z"/><path d="m58.3595586 23.2007h-1.10991v-.66h3.0225226v.66h-1.1099099v2.84h-.8027027z"/><path d="m63.8346847 23.1904v.925h1.6054054v.65h-1.6054054v1.275h-.8027027v-3.5h2.6211712v.65z"/><path d="m70.925027 25.3804v.66h-2.6211711v-.525l1.3378378-1.275c.1417117-.136.2378378-.254.2873874-.352.0495495-.099.0743243-.196.0743243-.293 0-.14-.0475676-.247-.1417117-.322-.0931532-.075-.2318919-.113-.4132432-.113-.1526127 0-.2893694.03-.4112613.088s-.224955.146-.3072072.262l-.5846847-.38c.1357658-.203.3220721-.362.5599099-.478.2378378-.114.5103604-.172.8175676-.172.2576576 0 .4826126.043.6768468.128.1922523.084.3428829.205.4509009.36.107027.155.1605406.337.1605406.547 0 .19-.0396397.368-.118919.535-.0792792.167-.2328828.357-.4608108.57l-.7977477.76z"/><path d="m78.2534054 23.2007h-1.1099099v-.66h3.0225225v.66h-1.1099099v2.84h-.8027027z"/><path d="m84.9324865 23.3579c-.1248649-.105-.3091892-.157-.55-.157h-.6540541v1.219h.6540541c.2408108 0 .4251351-.053.55-.159.1248649-.107.1882883-.257.1882883-.45 0-.197-.0634234-.348-.1882883-.453zm.2031531 2.683-.6689189-.975h-.0396396-.6986487v.975h-.8027027v-3.5h1.5013514c.3072072 0 .5737838.051.7997297.154.2269369.104.4013514.25.5232433.441.1218918.19.1833333.414.1833333.675 0 .259-.0614415.484-.1853153.672-.1238739.188-.3002703.333-.5281982.433l.7779279 1.125z"/><path d="m90.9277838 24.6753-.55-1.34-.55 1.34zm.2527027.615h-1.6103604l-.3072072.75h-.8225225l1.5459459-3.5h.7927928l1.5509009 3.5h-.8423423z"/><path d="m96.5568108 25.3755c.3468469 0 .6233333-.098.8304505-.292.2061261-.195.3091892-.459.3091892-.793 0-.333-.1030631-.598-.3091892-.792-.2071172-.195-.4836036-.293-.8304505-.293h-.7333333v2.17zm-1.536036-2.835h1.5756757c.3765765 0 .7095495.072.9989189.217.2883783.145.5133333.35.6738738.613.1595496.263.2398199.57.2398199.92s-.0802703.657-.2398199.92c-.1605405.264-.3854955.468-.6738738.613-.2893694.145-.6223424.217-.9989189.217h-1.5756757z"/><path d="m101.442793 26.0402h.802702v-3.5h-.802702z"/><path d="m108.577432 22.5405v3.5h-.659009l-1.729279-2.125v2.125h-.792793v-3.5h.663964l1.724325 2.125v-2.125z"/><path d="m114.072378 24.2354h.733334v1.42c-.188289.143-.406307.253-.654054.33-.247748.077-.496487.115-.748199.115-.359729 0-.683783-.077-.971171-.232-.287387-.155-.512342-.37-.675856-.645-.163513-.275-.245765-.586-.245765-.933s.082252-.658.245765-.932c.163514-.275.390451-.49.680811-.645.291352-.155.618379-.233.981081-.233.304235 0 .57973.052.827478.155s.455856.253.624324.45l-.515315.48c-.247748-.263-.547027-.395-.896847-.395-.220991 0-.418198.047-.58964.14-.171441.093-.305225.225-.401351.395-.095135.17-.143694.365-.143694.585 0 .217.048559.41.143694.58.096126.17.228919.302.399369.398.170451.094.363694.142.581712.142.231892 0 .439009-.05.624324-.15z"/><path d="m143.57755 26.3154c-.026757.001-.053514.001-.07928.001-.965225 0-1.506306-.581-1.506306-1.889v-6.751h4.471351v-3.648h-4.471351v-4.768h-5.454414v4.8h-7.585045v-1.763l-6.11937 3.565 6.11937 3.565v-1.751h7.585045v3.931l3.264324 1.902 1.486486.866-1.486486.866-3.026487 1.764c.652072 2.456 2.721262 3.758 5.438559 3.758 1.649009 0 3.32973-.448 4.566486-1.184l-1.078198-3.84c-.824504.352-1.553874.576-2.124684.576"/><path d="m122.833036 15.8623 1.550901.904c1.884865-.868 3.301982-2.314 4.092793-4.192z"/><path d="m116.031072 8.9278c0-2.656 1.553874-4.48 3.837117-4.48 2.251532 0 3.804415 1.824 3.804415 4.48 0 2.688-1.552883 4.479-3.804415 4.479-2.283243 0-3.837117-1.791-3.837117-4.479zm6.306667 7.801-1.486487-.866 1.486487-.867 6.119369-3.565.468739-.273c.167477-.721.264594-1.483.264594-2.294 0-5.312-3.741982-8.8-9.322252-8.8-5.612973 0-9.353964 3.488-9.353964 8.8s3.740991 8.831 9.353964 8.831c1.196126 0 2.301081-.171 3.308919-.477z"/><path d="m143.57755 26.3154c-.026757.001-.053514.001-.07928.001-.965225 0-1.506306-.581-1.506306-1.889v-6.751h4.471351v-3.648h-4.471351v-4.768h-5.454414v4.8h-7.585045v-1.763l-6.11937 3.565 6.11937 3.565v-1.751h7.585045v3.931l3.264324 1.902 1.486486.866-1.486486.866-3.026487 1.764c.652072 2.456 2.721262 3.758 5.438559 3.758 1.649009 0 3.32973-.448 4.566486-1.184l-1.078198-3.84c-.824504.352-1.553874.576-2.124684.576"/></g></svg>