<?xml version="1.0" encoding="UTF-8"?>
<svg width="53.295mm" height="27.813mm" version="1.1" viewBox="0 0 53.295 27.813" xmlns="http://www.w3.org/2000/svg">
 <g transform="translate(-53.332 -74.521)">
  <path d="m106.61 77.772c0.32141 3.6609-3.4398 5.8494-12.161 7.5504 4.5758-0.03455 7.8465-0.63935 11.225-2.0713 0.61351 4.5979-6.0487 3.8281-11.693 4.2095 1.5393 0.50564 5.0706 0.95908 9.9558 0.20045-0.84749 3.0891-4.2117 2.9447-11.893 1.1359 2.547 1.8756 5.4276 2.4844 8.419 2.5391-1.6522 2.02-3.9829 2.4344-9.6885-0.80181 1.1393 1.5574 3.2466 3.1987 6.3477 3.6081-4.2763 1.6036-5.8483-0.70359-7.7508-2.3386 0.98646 1.3722 1.5453 2.8108 3.4745 3.9422-1.6927 0.45445-3.3186-0.6329-5.0113-3.2072 0.49554 1.3011 0.52772 2.4477 2.0045 4.0759-2.5847 0.02731-3.3945-1.9659-4.1427-3.6081-1.6166-3.5222-3.4607-7.7703-3.2072-11.559 2.5613 2.1315 4.7886 2.5744 7.3499 2.6059 9.0037-1.6554 12.674-3.5188 16.771-6.2808z" fill="#bb4141"/>
  <path d="m53.351 77.839c-0.32141 3.6609 3.4398 5.8494 12.161 7.5504-4.5758-0.03455-7.8465-0.63935-11.225-2.0713-0.61351 4.5979 6.0487 3.8281 11.693 4.2095-1.5393 0.50564-5.0706 0.95908-9.9558 0.20045 0.84749 3.0891 4.2117 2.9447 11.893 1.1359-2.547 1.8756-5.4276 2.4844-8.419 2.5391 1.6522 2.02 3.9829 2.4344 9.6885-0.80181-1.1393 1.5574-3.2466 3.1987-6.3477 3.6081 4.2763 1.6036 5.8483-0.70359 7.7508-2.3386-0.98646 1.3722-1.5453 2.8108-3.4745 3.9422 1.6927 0.45445 3.3186-0.6329 5.0113-3.2072-0.49554 1.3011-0.52772 2.4477-2.0045 4.0759 2.5847 0.02731 3.3945-1.9659 4.1427-3.6081 1.6166-3.5222 3.4607-7.7703 3.2072-11.559-2.5613 2.1315-4.7886 2.5744-7.3499 2.6059-9.0037-1.6554-12.674-3.5188-16.771-6.2808z" fill="#5c798a"/>
 </g>
 <g transform="translate(-53.332 -74.521)">
  <path d="m73.033 95.134-0.26727 5.3788 4.5986-2.5073 2.5519 4.3283 2.8387-4.3934 4.0759 2.7729-0.03341-5.6461 5.312 0.26727-2.7061-4.2429 4.577-2.5725-4.5102-2.7395 2.7395-4.4434-5.1449 0.03341-0.01669-5.312-4.5102 2.7061-2.5892-4.2429-2.7061 4.1093-4.5102-2.6393 0.06682 5.3454-5.2118-0.03341 2.4722 4.0425-4.3431 2.7061 4.1427 3.0402-2.4388 4.2763z" fill="#ebebb4"/>
 </g>
 <g transform="translate(-53.332 -74.521)">
  <path d="m89.766 88.267c0.02474-4.2394-2.5745-8.4777-7.4139-9.4656a10.481 5.3327 89.778 0 0-2.503-1.2294 10.481 5.3327 89.778 0 0-2.6875 1.4475c-3.3997 1.0112-6.079 3.7042-6.8656 7.1742-2.5312 3.0355-12.271-1.1038-12.22 1.9968 0.05242 3.2206 10.559-1.2982 12.374 2.6949 1.0073 3.3838 3.8283 5.9105 7.2803 6.7272a10.481 5.3327 89.778 0 0 2.1784 0.92191 10.481 5.3327 89.778 0 0 2.1843-0.93638c5.203-1.1895 7.649-5.2592 7.6728-9.3312zm-27.129-0.04134c0.02249 0.55405-3.5795 0.73082-3.5484-0.1018 0.0094-0.26183 0.88916-0.41803 1.7701-0.41806 0.88099-2.9e-5 1.7635 0.15613 1.7783 0.51986z" fill="#322410" style="paint-order:stroke fill markers"/>
 </g>
 <g transform="translate(-53.332 -74.521)">
  <g fill="#ebebb4">
   <g transform="matrix(1.0116 0 0 .98853 -.19067 .20646)" stroke-width=".10227" aria-label="READY">
    <path d="m73.894 84.261q0-0.38284-0.16943-0.73636-0.17594-0.36818-0.4366-0.48873h-0.44149v1.2251h-0.63373v-3.0187h1.4662q0.35352 0 0.56693 0.24111 0.21504 0.24111 0.21504 0.6321 0 0.18083-0.13033 0.35515-0.1401 0.18898-0.3747 0.29161 0.29976 0.21504 0.44964 0.68097 0.11241 0.35352 0.11241 0.73473 0 0.04236-0.0016 0.08308zm-0.20527-2.3638q-0.07657-0.0277-0.28998-0.0277h-0.55227v0.52132h0.57345q0.25251 0 0.34211-0.06353 0.08308-0.05702 0.08308-0.19875 0-0.17269-0.1564-0.23133z"/>
    <path d="m75.142 84.261v-3.0187h2.0657v0.62721h-1.4369v0.79012h1.4369v0.61743h-1.4369v0.35352h1.4369v0.63047z"/>
    <path d="m79.819 84.261-0.22645-0.60603h-0.97421l-0.23622 0.60603h-0.7445l1.4597-3.1328 1.4678 3.1328zm-0.71355-1.7822-0.246 0.55064h0.49036z"/>
    <path d="m82.235 84.261h-1.1453v-3.0187h1.0557q0.57019 0 0.93837 0.40076 0.39262 0.4252 0.39262 1.1485 0 0.5539-0.2965 0.97421-0.347 0.49525-0.94489 0.49525zm-0.36655-2.3997h-0.14825v1.7725h0.2183q0.46593 0 0.67934-0.19875 0.21993-0.20364 0.21993-0.65653 0-0.91719-0.96932-0.91719z"/>
    <path d="m85.19 82.959v1.3017h-0.63698v-1.3017l-0.97095-1.533 0.58811-0.2965 0.70541 1.1306 0.70052-1.1306 0.55879 0.2965z"/>
   </g>
   <g transform="scale(.9885 1.0116)" stroke-width=".10561" aria-label="STEADY">
    <path d="m74.545 85.699q-0.143 0.16655-0.26917 0.24394-0.15646 0.09757-0.39198 0.13458-0.11272 0.01682-0.23048 0.01682-0.3802 0-0.75873-0.17496-0.35329-0.16487-0.60227-0.43067l0.45086-0.49292q0.17833 0.18001 0.45423 0.30618 0.23048 0.10599 0.41217 0.12954 0.04711 0.0067 0.09085 0.0067 0.22375 0 0.286-0.13963 0.02355-0.04879 0.02355-0.09757 0-0.11272-0.12954-0.21029-0.12954-0.09926-0.43909-0.24225-0.18674-0.0858-0.32132-0.17664-0.07234-0.04879-0.14468-0.09926-0.42563-0.24394-0.5232-0.64769-0.02523-0.10094-0.02523-0.19851 0-0.26412 0.18674-0.48451 0.143-0.16655 0.27085-0.24394 0.15646-0.09757 0.39198-0.1329 0.14468-0.02355 0.27927-0.02355 0.64938 0 1.1356 0.52152l-0.45086 0.43236q-0.31291-0.31628-0.67798-0.31628-0.04542 0-0.08748 0.0067-0.17833 0.02692-0.24057 0.09421-0.07402 0.07739-0.07402 0.16655 0 0.1144 0.11608 0.20356 0.16318 0.12281 0.42058 0.24225 0.1901 0.08748 0.35329 0.18674 0.08748 0.05383 0.17496 0.10935 0.16992 0.09757 0.31796 0.27422 0.14804 0.17664 0.18506 0.33142 0.02187 0.08916 0.02187 0.18001 0 0.28431-0.20524 0.52488z"/>
    <path d="m76.802 83.529v2.4663h-0.66284v-2.4663h-0.98248v-0.65106h2.5588v0.65106z"/>
    <path d="m78.212 85.995v-3.1173h2.1332v0.64769h-1.4838v0.81593h1.4838v0.6376h-1.4838v0.36506h1.4838v0.65106z"/>
    <path d="m83.042 85.995-0.23384-0.62582h-1.006l-0.24394 0.62582h-0.76882l1.5074-3.2351 1.5158 3.2351zm-0.73686-1.8405-0.25403 0.56862h0.50638z"/>
    <path d="m85.537 85.995h-1.1827v-3.1173h1.0901q0.58881 0 0.96902 0.41385 0.40544 0.43909 0.40544 1.186 0 0.57199-0.30618 1.006-0.35834 0.51143-0.97575 0.51143zm-0.37852-2.4781h-0.15309v1.8304h0.22543q0.48114 0 0.70153-0.20524 0.22711-0.21029 0.22711-0.67798 0-0.94715-1.001-0.94715z"/>
    <path d="m88.588 84.651v1.3442h-0.65779v-1.3442l-1.0027-1.5831 0.60732-0.30618 0.72844 1.1675 0.7234-1.1675 0.57704 0.30618z"/>
   </g>
   <g transform="scale(.97219 1.0286)" aria-label="PAN">
    <path d="m75.877 89.773-0.01718 1.8836-2.3707 0.0406 0.0015-6.4208 3.8329-0.0018c1.3657 0.02339 1.8224 1.3548 1.8137 2.3231-0.01153 1.2791-0.68656 2.1526-1.7689 2.165zm0.02578-2.7664v1.1021c0.68508-0.03805 0.83477-0.08868 0.82868-0.54836-0.0086-0.64972-0.71361-0.55395-0.82868-0.55377z" stroke-width=".21621"/>
    <path d="m82.885 91.66-0.4543-1.1205-1.3088-0.01148-0.47391 1.1205h-1.8626l1.8379-6.3796 2.315-0.0038 1.7203 6.3833zm-1.1548-3.7765-0.39552 1.1354 0.82236-0.01148z" stroke-width=".21062"/>
    <path d="m87.268 89.237-0.01718 2.4196-2.2757-0.01047-0.0043-6.3891 2.3873 1.09e-4 1.3734 2.5981-0.02406-2.5988 2.3643 0.01917 4.26e-4 6.3798-2.3552 0.0037z" stroke-width=".21621"/>
   </g>
  </g>
 </g>
</svg>
