<svg xmlns="http://www.w3.org/2000/svg" viewBox="0 0 1069.94 273.83"><title>Full Logo</title><path d="M118.9,46.88L84.21,20.6s-11.46-8.73-19.93-13S48.28,1.12,43,.6,34.45,0,34.45,0h-11a23.43,23.43,0,0,0,0,46.86h11a22.36,22.36,0,0,1,3.37.74c2.11,0.63,4,1.53,9,4.74,1.46,0.93,1.46.93,5.5,3.64L84.21,79.81l24.63-15.58,29-2.68,1.89-5.17V56C131.19,54.8,118.9,46.88,118.9,46.88Z" style="fill:#1e88e5"/><path d="M139.67,56v0.4l0.14-.38Z" style="fill:#1e88e5"/><path d="M137.84,99l-28-4.41L84.21,79.81,52.42,104.56c-4,2.71-4,2.71-5.5,3.64-5,3.21-6.91,4.11-9,4.74a22.36,22.36,0,0,1-3.37.74h-11a23.43,23.43,0,1,0,0,46.86h11s3.31-.09,8.56-0.6,12.79-2.77,21.27-7,19.93-13,19.93-13L119,113.66s12.21-9,20.69-10.18v-0.34Z" style="fill:#1e88e5"/><path d="M139.67,103.16v0.34h0.14Z" style="fill:#1e88e5"/><path d="M192.22,79.73a23.73,23.73,0,0,1-23.73,23.73H139.67v-0.08c-28.34.07-55.46-23.57-55.46-23.57s27.12-23.46,55.46-23.58V56h28.82a23.72,23.72,0,0,1,23.73,23.7h0Z" style="fill:#42a5f5"/><path d="M73.32,226.91L108,253.23s11.46,8.73,19.93,13,16,6.48,21.27,7,8.56,0.6,8.56.6h11a23.43,23.43,0,0,0,0-46.86h-11a22.36,22.36,0,0,1-3.37-.74c-2.11-.63-4-1.53-9-4.74-1.46-.93-1.46-0.93-5.5-3.64L108,194,83.4,209.56l-29,2.67-1.89,5.17v0.4C61,219,73.32,226.91,73.32,226.91Z" style="fill:#c0392b"/><path d="M52.56,217.82v-0.4l-0.14.38Z" style="fill:#1e88e5"/><path d="M54.36,174.78l28.06,4.45L108,194l31.83-24.79c4-2.71,4-2.71,5.5-3.64,5-3.21,6.91-4.11,9-4.74a22.36,22.36,0,0,1,3.37-.74h11a23.43,23.43,0,1,0,0-46.86h-11s-3.31.09-8.56,0.6-12.79,2.77-21.27,7-19.93,13-19.93,13l-34.7,26.26s-12.21,9-20.69,10.18v0.34Z" style="fill:#c0392b"/><path d="M52.56,170.63v-0.34H52.42Z" style="fill:#1e88e5"/><path d="M0,194a23.73,23.73,0,0,1,23.73-23.73H52.55v0.08C80.89,170.34,108,194,108,194s-27.12,23.46-55.46,23.59v0.22H23.73A23.72,23.72,0,0,1,0,194.12s0,0,0,0V194Z" style="fill:#e74c3c"/><path d="M202.13,109.27q0-26.49,17.8-39.88T265.65,56q26.49,0,44.15,13.53t17.94,39.16h-43q-0.29-12.82-21.65-12.82a23.9,23.9,0,0,0-10.82,2.42,8.38,8.38,0,0,0-4.84,8.12q0,7.69,18.51,8.55,27.34,0.85,46.14,13.24T330.88,166q0,27.06-18.66,39.45T265.08,217.8q-29.34,0-47.14-13.81t-18.09-42h45a12.47,12.47,0,0,0,6.55,10.82,28.57,28.57,0,0,0,14.81,3.7q8.54,0.29,14.1-2.42t5.55-7a8.17,8.17,0,0,0-1.71-5.27,9.08,9.08,0,0,0-5-3q-3.28-.86-5.7-1.28a51.77,51.77,0,0,0-6.84-.57q-4.42-.14-5.27-0.14a127.85,127.85,0,0,1-17.34-2.7,87.43,87.43,0,0,1-15.95-5.41,49.42,49.42,0,0,1-13.53-8.7,37.76,37.76,0,0,1-9-13.1A44.35,44.35,0,0,1,202.13,109.27Z" style="fill:#262422"/><path d="M451.24,148.91h45.68q-3.23,23.43-16.4,39.83T449.63,212a86.45,86.45,0,0,1-37.48,5.56,87.72,87.72,0,0,1-36.31-10.25q-16.55-8.93-27.53-27.38t-11-43q0-24.6,11-43t27.53-27.38A88,88,0,0,1,412.3,56.22a86,86,0,0,1,37.48,5.56q17.57,6.88,30.75,23.43t16.4,40H451.24q-4.11-14.06-15.67-20.79T412.3,99.27q-11.72,1.61-20.8,11.75t-9.08,25.92q0,15.81,9.08,25.92t20.79,11.86q11.71,1.76,23.13-5T451.24,148.91Z" style="fill:#262422"/><path d="M549.59,129.87v87.92h-46V59.23H545.2L547,69.78A48.82,48.82,0,0,1,581.54,56a79,79,0,0,1,17.88,2.34l-0.59,43.38A52.6,52.6,0,0,0,583.3,99.4q-14.07.3-23.89,7.91T549.59,129.87Z" style="fill:#262422"/><path d="M682.33,56Q708.18,56,723,74.89V58.62h45.6V215.76H723V200.07q-14.23,17.72-41.24,17.72-35.73,0-55.77-24.4t-19.75-59q0.58-34.27,20-56.35T682.33,56Zm4.94,117.92a33.53,33.53,0,0,0,25.27-11A37.44,37.44,0,0,0,723,136.17a38,38,0,0,0-10.46-26.87q-10.46-11.18-25.27-11.18-16.56,0-25.71,11t-9.44,26.43a39.73,39.73,0,0,0,9.15,26.87q9.44,11.52,26,11.51h0Z" style="fill:#262422"/><path d="M868.92,217.66q-25.55,0-40.64-17.13v60.38H783V58h45.28V73.69Q842.5,56,869.5,56q35.7,0,55.73,24.38T945,139.29q-0.59,34.25-20,56.31T868.92,217.66ZM864,99.81a33.52,33.52,0,0,0-25.25,11,37.42,37.42,0,0,0-10.45,26.7,37.92,37.92,0,0,0,10.45,26.85Q849.2,175.54,864,175.54q16.54,0,25.69-11t9.43-26.42A39.77,39.77,0,0,0,890,111.28Q880.53,99.81,864,99.81Z" style="fill:#262422"/><path d="M992.62,135.63H973.39V74H952.14V56h61.63V74H992.62v61.61Z" style="fill:#1e88e5"/><path d="M1038.12,107.18v28.45H1019V56.23h50.94V74.57h-31.83V89.3h30v17.88h-30Z" style="fill:#1e88e5"/></svg>